HIERARCHY
ROOT joint_Root
{
	OFFSET 0.0 0.0 0.0
	CHANNELS 6 Xposition Yposition Zposition Zrotation Xrotation Yrotation 
	JOINT Hips
	{
		OFFSET -0.726466 93.3139 -2.00062
		CHANNELS 6 Xposition Yposition Zposition Zrotation Xrotation Yrotation 
		JOINT Spine
		{
			OFFSET 15.7357 0.0 0.0
			CHANNELS 6 Xposition Yposition Zposition Zrotation Xrotation Yrotation 
			JOINT Chest
			{
				OFFSET 8.98455 -0.406207 0.0
				CHANNELS 6 Xposition Yposition Zposition Zrotation Xrotation Yrotation 
				JOINT Neck
				{
					OFFSET 16.3773 0.0 0.0
					CHANNELS 6 Xposition Yposition Zposition Zrotation Xrotation Yrotation 
					JOINT Head
					{
						OFFSET 6.45672 0.0 0.0
						CHANNELS 6 Xposition Yposition Zposition Zrotation Xrotation Yrotation 
						End Site
						{
							OFFSET 0.0 0.0 0.0
						}
					}
				}
				JOINT Shoulder_L
				{
					OFFSET 12.9942 -0.242716 4.98039
					CHANNELS 6 Xposition Yposition Zposition Zrotation Xrotation Yrotation 
					JOINT UpperArm_L
					{
						OFFSET 5.34809 0.0 0.0
						CHANNELS 6 Xposition Yposition Zposition Zrotation Xrotation Yrotation 
						JOINT LowerArm_L
						{
							OFFSET 24.3286 1.87007e-05 0.0
							CHANNELS 6 Xposition Yposition Zposition Zrotation Xrotation Yrotation 
							JOINT Hand_L
							{
								OFFSET 22.2916 0.0 0.0
								CHANNELS 6 Xposition Yposition Zposition Zrotation Xrotation Yrotation 
								End Site
								{
									OFFSET 0.0 0.0 0.0
								}
							}
						}
					}
				}
				JOINT Shoulder_R
				{
					OFFSET 12.9945 -0.242716 -4.98039
					CHANNELS 6 Xposition Yposition Zposition Zrotation Xrotation Yrotation 
					JOINT UpperArm_R
					{
						OFFSET -5.34813 0.0 0.0
						CHANNELS 6 Xposition Yposition Zposition Zrotation Xrotation Yrotation 
						JOINT LowerArm_R
						{
							OFFSET -24.3289 0.000322201 0.0
							CHANNELS 6 Xposition Yposition Zposition Zrotation Xrotation Yrotation 
							JOINT Hand_R
							{
								OFFSET -22.2915 -0.000108084 0.0
								CHANNELS 6 Xposition Yposition Zposition Zrotation Xrotation Yrotation 
								End Site
								{
									OFFSET 0.0 0.0 0.0
								}
							}
						}
					}
				}
			}
		}
		JOINT UpperLeg_L
		{
			OFFSET -2.19248 -6.46944 0.0
			CHANNELS 6 Xposition Yposition Zposition Zrotation Xrotation Yrotation 
			JOINT LowerLeg_L
			{
				OFFSET 39.0811 0.0 -1.23785e-05
				CHANNELS 6 Xposition Yposition Zposition Zrotation Xrotation Yrotation 
				JOINT Foot_L
				{
					OFFSET 40.9854 0.0 -1.26872e-05
					CHANNELS 6 Xposition Yposition Zposition Zrotation Xrotation Yrotation 
					JOINT Toes_L
					{
						OFFSET 11.7543 0.0 0.0
						CHANNELS 6 Xposition Yposition Zposition Zrotation Xrotation Yrotation 
						End Site
						{
							OFFSET 0.0 0.0 0.0
						}
					}
				}
			}
		}
		JOINT UpperLeg_R
		{
			OFFSET -2.19251 6.46944 0.0
			CHANNELS 6 Xposition Yposition Zposition Zrotation Xrotation Yrotation 
			JOINT LowerLeg_R
			{
				OFFSET -39.0811 -0.00228153 -0.0401928
				CHANNELS 6 Xposition Yposition Zposition Zrotation Xrotation Yrotation 
				JOINT Foot_R
				{
					OFFSET -40.9854 0.0 0.0
					CHANNELS 6 Xposition Yposition Zposition Zrotation Xrotation Yrotation 
					JOINT Toes_R
					{
						OFFSET -11.7543 0.0 0.0
						CHANNELS 6 Xposition Yposition Zposition Zrotation Xrotation Yrotation 
						End Site
						{
							OFFSET 0.0 0.0 0.0
						}
					}
				}
			}
		}
	}
}
MOTION
Frames:	8
Frame Time:	0.0333333
0.000000 0.000000 0.000000 0.000000 0.000000 -0.000000 -0.884108 91.894800 1.689250 87.474400 -2.459460 1.562140 15.735700 0.000005 -0.000001 82.253400 86.712600 -81.480700 8.984550 -0.406207 -0.000000 -1.244350 -0.946791 1.534630 16.377300 -0.000001 -0.000001 0.778246 -1.656490 0.176455 6.456720 -0.000001 -0.000000 2.659490 -1.563550 -0.059584 12.994200 -0.242716 4.980390 -90.122900 0.329742 -69.563100 5.348090 -0.000007 -0.000001 -66.564800 33.515700 -8.913650 24.328600 0.000019 0.000005 3.285870 5.266860 -32.023000 22.291600 -0.000001 0.000005 4.490220 5.619200 -12.565200 12.994500 -0.242716 -4.980390 88.102900 5.138620 -69.705100 -5.348130 -0.000001 -0.000004 -62.334300 30.920000 -8.939310 -24.328900 0.000322 -0.000009 0.905372 1.575960 -29.913100 -22.291500 -0.000108 -0.000004 5.025680 5.609200 -11.908100 -2.192480 -6.469440 -0.000000 -168.623000 -17.937400 -2.384360 39.081100 -0.000007 -0.000012 -0.201695 0.509408 21.600900 40.985400 -0.000006 -0.000013 -8.095630 -3.543250 -65.183600 11.754300 -0.000000 0.000003 -0.000153 -0.001476 -16.633600 -2.192510 6.469440 -0.000001 174.440000 21.622100 179.802000 -39.081100 -0.002282 -0.040193 -0.056121 0.179435 18.329700 -40.985400 0.000008 0.000006 -4.728260 1.647540 -63.990500 -11.754300 -0.000006 -0.000006 -0.002900 -0.039470 -18.178300
0.000000 0.000000 0.000000 0.000000 0.000000 -0.000000 -0.910581 91.906000 1.645910 87.417100 -2.611960 1.543480 15.735700 0.000005 -0.000001 82.471500 86.694000 -81.656900 8.984550 -0.406207 -0.000000 -1.204010 -0.929855 1.618800 16.377300 -0.000001 -0.000001 0.514911 -1.645190 0.244549 6.456720 -0.000001 -0.000000 2.385780 -1.657790 0.309675 12.994200 -0.242716 4.980390 -90.143000 0.382070 -69.480400 5.348090 -0.000007 -0.000001 -65.764500 33.258200 -9.121090 24.328600 0.000019 0.000005 3.843060 6.095630 -32.317000 22.291600 -0.000001 0.000005 4.774940 5.620870 -12.679100 12.994500 -0.242716 -4.980390 88.172500 4.959650 -69.742900 -5.348130 -0.000001 -0.000004 -61.938500 32.354500 -8.752750 -24.328900 0.000322 -0.000009 0.857414 1.412610 -31.293600 -22.291500 -0.000108 -0.000004 5.173660 5.609000 -11.895300 -2.192480 -6.469440 -0.000000 -168.556000 -18.032700 -2.383840 39.081100 -0.000007 -0.000012 -0.199799 0.505358 21.572200 40.985400 -0.000006 -0.000013 -8.113020 -3.596030 -65.147700 11.754300 -0.000000 0.000003 -0.000148 -0.001437 -16.632200 -2.192510 6.469440 -0.000001 174.563000 21.545000 179.727000 -39.081100 -0.002282 -0.040193 -0.053187 0.170803 18.307200 -40.985400 0.000008 0.000006 -4.616010 1.646760 -63.940500 -11.754300 -0.000006 -0.000006 -0.002923 -0.039726 -18.188700
0.000000 0.000000 0.000000 0.000000 0.000000 -0.000000 -0.940518 91.919300 1.583970 87.404800 -2.764920 1.479210 15.735700 0.000005 -0.000001 82.940900 86.687400 -82.084000 8.984550 -0.406207 -0.000000 -1.183840 -0.880937 1.703990 16.377300 -0.000001 -0.000001 0.227106 -1.672340 0.393596 6.456720 -0.000001 -0.000000 2.069430 -1.764550 0.536087 12.994200 -0.242716 4.980390 -90.155800 0.413846 -69.375300 5.348090 -0.000007 -0.000001 -64.582700 32.812900 -9.551410 24.328600 0.000019 0.000005 4.479280 7.068650 -32.479900 22.291600 -0.000001 0.000005 5.146100 5.624630 -12.943800 12.994500 -0.242716 -4.980390 88.266200 4.701390 -69.729700 -5.348130 -0.000001 -0.000004 -61.389600 34.164200 -8.330270 -24.328900 0.000322 -0.000009 0.884477 1.333950 -33.579700 -22.291500 -0.000108 -0.000004 5.569950 5.611340 -12.044000 -2.192480 -6.469440 -0.000000 -168.563000 -18.055100 -2.419260 39.081100 -0.000007 -0.000012 -0.197483 0.501462 21.495500 40.985400 -0.000006 -0.000013 -8.146850 -3.743820 -65.092800 11.754300 -0.000000 0.000003 -0.000155 -0.001497 -16.634400 -2.192510 6.469440 -0.000001 174.647000 21.489700 179.587000 -39.081100 -0.002282 -0.040193 -0.052813 0.169693 18.305000 -40.985400 0.000008 0.000006 -4.505510 1.717760 -63.891500 -11.754300 -0.000006 -0.000006 -0.002925 -0.039756 -18.189900
0.000000 0.000000 0.000000 0.000000 0.000000 -0.000000 -0.981665 91.928400 1.530020 87.377700 -2.818010 1.393950 15.735700 0.000005 -0.000001 83.096100 86.689700 -82.185600 8.984550 -0.406207 -0.000000 -1.185930 -0.866761 1.811450 16.377300 -0.000001 -0.000001 -0.050336 -1.676120 0.490795 6.456720 -0.000001 -0.000000 1.743790 -1.813630 0.899031 12.994200 -0.242716 4.980390 -90.164200 0.433335 -69.249500 5.348090 -0.000007 -0.000001 -63.027800 31.737600 -10.144000 24.328600 0.000019 0.000005 5.329110 8.382510 -32.613500 22.291600 -0.000001 0.000005 5.375640 5.624660 -12.946900 12.994500 -0.242716 -4.980390 88.370800 4.404740 -69.678100 -5.348130 -0.000001 -0.000004 -60.573400 36.495100 -7.717400 -24.328900 0.000322 -0.000009 1.049460 1.407960 -36.735400 -22.291500 -0.000108 -0.000004 6.154040 5.614860 -12.272500 -2.192480 -6.469440 -0.000000 -168.543000 -18.051600 -2.511880 39.081100 -0.000007 -0.000012 -0.198138 0.504328 21.448900 40.985400 -0.000006 -0.000013 -8.181530 -3.824630 -65.034900 11.754300 -0.000000 0.000003 -0.000144 -0.001406 -16.631100 -2.192510 6.469440 -0.000001 174.754000 21.476700 179.461000 -39.081100 -0.002282 -0.040193 -0.051409 0.165718 18.277600 -40.985400 0.000008 0.000006 -4.500040 1.743790 -63.845700 -11.754300 -0.000006 -0.000006 -0.002887 -0.039315 -18.172000
0.000000 0.000000 0.000000 0.000000 0.000000 -0.000000 -1.041760 91.941200 1.483060 87.344200 -2.811350 1.367570 15.735700 0.000005 -0.000001 83.087700 86.677500 -82.104800 8.984550 -0.406207 -0.000000 -1.161180 -0.876092 1.956090 16.377300 -0.000001 -0.000001 -0.286415 -1.664980 0.611595 6.456720 -0.000001 -0.000000 1.404820 -1.799290 1.208510 12.994200 -0.242716 4.980390 -90.180500 0.472637 -69.104100 5.348090 -0.000007 -0.000001 -60.826200 30.348700 -11.167700 24.328600 0.000019 0.000005 5.748110 9.176200 -32.260800 22.291600 -0.000001 0.000005 5.578090 5.622890 -12.820600 12.994500 -0.242716 -4.980390 88.509300 3.998810 -69.536200 -5.348130 -0.000001 -0.000004 -59.498100 39.165300 -6.991050 -24.328900 0.000322 -0.000009 1.453530 1.682430 -40.852900 -22.291500 -0.000108 -0.000004 6.354160 5.618440 -12.512700 -2.192480 -6.469440 -0.000000 -168.484000 -18.062700 -2.530960 39.081100 -0.000007 -0.000012 -0.195189 0.498891 21.368000 40.985400 -0.000006 -0.000013 -8.196890 -3.784840 -64.948100 11.754300 -0.000000 0.000003 -0.000141 -0.001382 -16.630100 -2.192510 6.469440 -0.000001 174.865000 21.437100 179.424000 -39.081100 -0.002282 -0.040193 -0.049630 0.160869 18.220500 -40.985400 0.000008 0.000006 -4.458860 1.696360 -63.807400 -11.754300 -0.000006 -0.000006 -0.003057 -0.041240 -18.250300
0.000000 0.000000 0.000000 0.000000 0.000000 -0.000000 -1.109110 91.947900 1.436800 87.340800 -2.709930 1.369270 15.735700 0.000005 -0.000001 82.611300 86.654800 -81.559700 8.984550 -0.406207 -0.000000 -1.121790 -0.941726 2.093270 16.377300 -0.000001 -0.000001 -0.481886 -1.677330 0.759098 6.456720 -0.000001 -0.000000 1.072920 -1.692810 1.587100 12.994200 -0.242716 4.980390 -90.168600 0.439757 -69.029700 5.348090 -0.000007 -0.000001 -58.442500 28.010400 -12.313500 24.328600 0.000019 0.000005 5.728980 9.453490 -31.416300 22.291600 -0.000001 0.000005 5.787960 5.621130 -12.698200 12.994500 -0.242716 -4.980390 88.667600 3.545860 -69.390800 -5.348130 -0.000001 -0.000004 -58.149000 41.897500 -6.086380 -24.328900 0.000322 -0.000009 1.994510 1.935800 -45.881000 -22.291500 -0.000108 -0.000004 6.068960 5.625800 -13.030000 -2.192480 -6.469440 -0.000000 -168.443000 -18.024200 -2.560980 39.081100 -0.000007 -0.000012 -0.195100 0.500165 21.309600 40.985400 -0.000006 -0.000013 -8.219690 -3.748380 -64.855400 11.754300 -0.000000 0.000003 -0.000149 -0.001442 -16.632400 -2.192510 6.469440 -0.000001 174.927000 21.508200 179.392000 -39.081100 -0.002282 -0.040193 -0.050115 0.161935 18.263400 -40.985400 0.000008 0.000006 -4.309490 1.660340 -63.839800 -11.754300 -0.000006 -0.000006 -0.002913 -0.039611 -18.184000
0.000000 0.000000 0.000000 0.000000 0.000000 -0.000000 -1.183560 91.957100 1.399580 87.316000 -2.573550 1.351380 15.735700 0.000005 -0.000001 82.135400 86.629900 -80.989800 8.984550 -0.406207 -0.000000 -1.078110 -1.010480 2.280850 16.377300 -0.000001 -0.000001 -0.717261 -1.657640 0.925867 6.456720 -0.000001 -0.000000 0.755901 -1.593790 1.971970 12.994200 -0.242716 4.980390 -90.128800 0.336223 -69.039000 5.348090 -0.000007 -0.000001 -55.986000 24.725800 -13.559300 24.328600 0.000019 0.000005 5.093550 8.791220 -30.250400 22.291600 -0.000001 0.000005 5.704970 5.612930 -12.147500 12.994500 -0.242716 -4.980390 88.865900 2.982300 -69.168200 -5.348130 -0.000001 -0.000004 -56.339000 44.907000 -5.256130 -24.328900 0.000322 -0.000009 2.619670 2.072450 -51.687900 -22.291500 -0.000108 -0.000004 5.724730 5.634000 -13.646000 -2.192480 -6.469440 -0.000000 -168.376000 -18.002200 -2.602410 39.081100 -0.000007 -0.000012 -0.193703 0.498432 21.237600 40.985400 -0.000006 -0.000013 -8.227800 -3.620470 -64.753000 11.754300 -0.000000 0.000003 -0.000140 -0.001373 -16.629800 -2.192510 6.469440 -0.000001 175.043000 21.574900 179.361000 -39.081100 -0.002282 -0.040193 -0.047794 0.154935 18.259600 -40.985400 0.000008 0.000006 -4.245730 1.521650 -63.849100 -11.754300 -0.000006 -0.000006 -0.003040 -0.041058 -18.242900
0.000000 0.000000 0.000000 0.000000 0.000000 -0.000000 -1.270720 91.958200 1.360190 87.318100 -2.377740 1.350060 15.735700 0.000005 -0.000001 81.236100 86.602600 -79.997700 8.984550 -0.406207 -0.000000 -1.037210 -1.130150 2.465590 16.377300 -0.000001 -0.000001 -0.911271 -1.690650 1.148290 6.456720 -0.000001 -0.000000 0.439935 -1.441220 2.405490 12.994200 -0.242716 4.980390 -90.047000 0.122641 -69.030800 5.348090 -0.000007 -0.000001 -53.618300 20.425000 -14.889500 24.328600 0.000019 0.000005 4.403160 7.978740 -29.017900 22.291600 -0.000001 0.000005 5.482540 5.600990 -11.401100 12.994500 -0.242716 -4.980390 89.078600 2.389480 -68.905100 -5.348130 -0.000001 -0.000004 -53.985400 47.995800 -4.626560 -24.328900 0.000322 -0.000009 3.001050 1.888060 -57.866900 -22.291500 -0.000108 -0.000004 4.866830 5.642780 -14.363600 -2.192480 -6.469440 -0.000000 -168.329000 -17.914200 -2.669100 39.081100 -0.000007 -0.000012 -0.193892 0.499846 21.201700 40.985400 -0.000006 -0.000013 -8.249040 -3.512780 -64.657000 11.754300 -0.000000 0.000003 -0.000144 -0.001407 -16.631100 -2.192510 6.469440 -0.000001 175.117000 21.632400 179.331000 -39.081100 -0.002282 -0.040193 -0.047783 0.154296 18.326400 -40.985400 0.000008 0.000006 -4.168840 1.388990 -63.915400 -11.754300 -0.000006 -0.000006 -0.003298 -0.043932 -18.359800
